<?xml version="1.0" encoding="UTF-8"?>
<svg xmlns="http://www.w3.org/2000/svg" viewBox="0 0 1200 400" preserveAspectRatio="xMidYMid slice">
  <rect width="1200" height="400" fill="#f0e6c8"/>
  <!-- top border -->
  <rect x="18" y="13" width="1164" height="2.5" fill="#111"/>
  <!-- MASTHEAD -->
  <text x="600" y="48" text-anchor="middle" font-family="Georgia,'Times New Roman',serif" font-size="34" font-weight="bold" letter-spacing="8" fill="#0a0a0a">THE SHIELD TRIBUNE</text>
  <text x="22" y="48" font-family="Georgia,serif" font-size="10" fill="#444">VOL. XII  ·  NO. 7</text>
  <text x="1178" y="48" text-anchor="end" font-family="Georgia,serif" font-size="10" fill="#444">FRIDAY, APRIL 25, 2026  ·  $2.50</text>
  <!-- masthead rules -->
  <rect x="18" y="56" width="1164" height="3.5" fill="#0a0a0a"/>
  <rect x="18" y="61" width="1164" height="0.9" fill="#0a0a0a"/>
  <!-- MAIN HEADLINE -->
  <text x="600" y="100" text-anchor="middle" font-family="Georgia,serif" font-size="34" font-weight="bold" fill="#080808">CAPTAIN AMERICA CHANNEL SMASHES 10 MILLION SUBSCRIBERS</text>
  <!-- deck -->
  <text x="600" y="120" text-anchor="middle" font-family="Georgia,serif" font-size="13.5" font-style="italic" fill="#2a2a2a">Steve Rogers Goes Viral Overnight · Shield Production Breaks YouTube Records · Algorithm Officially Salutes</text>
  <!-- section rule -->
  <rect x="18" y="130" width="1164" height="0.7" fill="#666"/>
  <!-- column dividers -->
  <rect x="415" y="136" width="0.7" height="188" fill="#aaa"/>
  <rect x="790" y="136" width="0.7" height="188" fill="#aaa"/>
  <!-- COL 1 -->
  <text x="24" y="155" font-family="Georgia,serif" font-size="13.5" font-weight="bold" fill="#0a0a0a">CAP'S PATRIOTISM VIDEO</text>
  <text x="24" y="172" font-family="Georgia,serif" font-size="13.5" font-weight="bold" fill="#0a0a0a">HITS 50 MILLION VIEWS</text>
  <rect x="24" y="180" width="374" height="5.5" rx="1.5" fill="#b8a882"/>
  <rect x="24" y="190" width="374" height="5.5" rx="1.5" fill="#b8a882"/>
  <rect x="24" y="200" width="338" height="5.5" rx="1.5" fill="#b8a882"/>
  <rect x="24" y="210" width="374" height="5.5" rx="1.5" fill="#b8a882"/>
  <rect x="24" y="220" width="374" height="5.5" rx="1.5" fill="#b8a882"/>
  <rect x="24" y="230" width="296" height="5.5" rx="1.5" fill="#b8a882"/>
  <rect x="24" y="240" width="374" height="5.5" rx="1.5" fill="#b8a882"/>
  <rect x="24" y="250" width="355" height="5.5" rx="1.5" fill="#b8a882"/>
  <rect x="24" y="260" width="374" height="5.5" rx="1.5" fill="#b8a882"/>
  <rect x="24" y="270" width="280" height="5.5" rx="1.5" fill="#b8a882"/>
  <rect x="24" y="280" width="374" height="5.5" rx="1.5" fill="#b8a882"/>
  <rect x="24" y="290" width="340" height="5.5" rx="1.5" fill="#b8a882"/>
  <!-- COL 2 -->
  <text x="425" y="155" font-family="Georgia,serif" font-size="13.5" font-weight="bold" fill="#0a0a0a">SHIELD PRODUCTION RIVALS</text>
  <text x="425" y="172" font-family="Georgia,serif" font-size="13.5" font-weight="bold" fill="#0a0a0a">HOLLYWOOD IN QUALITY</text>
  <rect x="425" y="180" width="348" height="5.5" rx="1.5" fill="#b8a882"/>
  <rect x="425" y="190" width="348" height="5.5" rx="1.5" fill="#b8a882"/>
  <rect x="425" y="200" width="310" height="5.5" rx="1.5" fill="#b8a882"/>
  <rect x="425" y="210" width="348" height="5.5" rx="1.5" fill="#b8a882"/>
  <rect x="425" y="220" width="348" height="5.5" rx="1.5" fill="#b8a882"/>
  <rect x="425" y="230" width="276" height="5.5" rx="1.5" fill="#b8a882"/>
  <rect x="425" y="240" width="348" height="5.5" rx="1.5" fill="#b8a882"/>
  <rect x="425" y="250" width="330" height="5.5" rx="1.5" fill="#b8a882"/>
  <rect x="425" y="260" width="348" height="5.5" rx="1.5" fill="#b8a882"/>
  <rect x="425" y="270" width="265" height="5.5" rx="1.5" fill="#b8a882"/>
  <rect x="425" y="280" width="348" height="5.5" rx="1.5" fill="#b8a882"/>
  <rect x="425" y="290" width="318" height="5.5" rx="1.5" fill="#b8a882"/>
  <!-- COL 3 -->
  <text x="800" y="155" font-family="Georgia,serif" font-size="13.5" font-weight="bold" fill="#0a0a0a">SUBSCRIBERS POUR IN FROM</text>
  <text x="800" y="172" font-family="Georgia,serif" font-size="13.5" font-weight="bold" fill="#0a0a0a">ALL 50 STATES AND BEYOND</text>
  <rect x="800" y="180" width="378" height="5.5" rx="1.5" fill="#b8a882"/>
  <rect x="800" y="190" width="378" height="5.5" rx="1.5" fill="#b8a882"/>
  <rect x="800" y="200" width="340" height="5.5" rx="1.5" fill="#b8a882"/>
  <rect x="800" y="210" width="378" height="5.5" rx="1.5" fill="#b8a882"/>
  <rect x="800" y="220" width="378" height="5.5" rx="1.5" fill="#b8a882"/>
  <rect x="800" y="230" width="305" height="5.5" rx="1.5" fill="#b8a882"/>
  <rect x="800" y="240" width="378" height="5.5" rx="1.5" fill="#b8a882"/>
  <rect x="800" y="250" width="358" height="5.5" rx="1.5" fill="#b8a882"/>
  <rect x="800" y="260" width="378" height="5.5" rx="1.5" fill="#b8a882"/>
  <rect x="800" y="270" width="275" height="5.5" rx="1.5" fill="#b8a882"/>
  <rect x="800" y="280" width="378" height="5.5" rx="1.5" fill="#b8a882"/>
  <rect x="800" y="290" width="345" height="5.5" rx="1.5" fill="#b8a882"/>
  <!-- lower section rule -->
  <rect x="18" y="313" width="1164" height="0.7" fill="#666"/>
  <!-- lower headlines (3 across) -->
  <text x="24" y="331" font-family="Georgia,serif" font-size="11.5" font-weight="bold" fill="#111">SHIELD THROW TUTORIAL BEATS</text>
  <text x="24" y="346" font-family="Georgia,serif" font-size="11.5" font-weight="bold" fill="#111">ALL GAMING CHANNELS COMBINED</text>
  <rect x="24" y="352" width="366" height="4" rx="1" fill="#c8b890"/>
  <rect x="24" y="359" width="366" height="4" rx="1" fill="#c8b890"/>
  <rect x="24" y="366" width="290" height="4" rx="1" fill="#c8b890"/>
  <rect x="408" y="316" width="0.7" height="64" fill="#bbb"/>
  <text x="418" y="331" font-family="Georgia,serif" font-size="11.5" font-weight="bold" fill="#111">MARVEL STUDIOS CALLS STEVE</text>
  <text x="418" y="346" font-family="Georgia,serif" font-size="11.5" font-weight="bold" fill="#111">ROGERS' CHANNEL INSPIRING</text>
  <rect x="418" y="352" width="358" height="4" rx="1" fill="#c8b890"/>
  <rect x="418" y="359" width="358" height="4" rx="1" fill="#c8b890"/>
  <rect x="418" y="366" width="280" height="4" rx="1" fill="#c8b890"/>
  <rect x="793" y="316" width="0.7" height="64" fill="#bbb"/>
  <text x="803" y="331" font-family="Georgia,serif" font-size="11.5" font-weight="bold" fill="#111">YOUTUBE CEO AWARDS CAP THE</text>
  <text x="803" y="346" font-family="Georgia,serif" font-size="11.5" font-weight="bold" fill="#111">DIAMOND PLAY BUTTON IN PERSON</text>
  <rect x="803" y="352" width="375" height="4" rx="1" fill="#c8b890"/>
  <rect x="803" y="359" width="375" height="4" rx="1" fill="#c8b890"/>
  <rect x="803" y="366" width="295" height="4" rx="1" fill="#c8b890"/>
  <!-- bottom rules -->
  <rect x="18" y="384" width="1164" height="2" fill="#111"/>
  <rect x="18" y="388" width="1164" height="0.7" fill="#555"/>
</svg>
